<!--
  - Copyright © 2023-2024 Rohit Parihar and Bloggios
  - All rights reserved.
  - This software is the property of Rohit Parihar and is protected by copyright law.
  - The software, including its source code, documentation, and associated files, may not be used, copied, modified, distributed, or sublicensed without the express written consent of Rohit Parihar.
  - For licensing and usage inquiries, please contact Rohit Parihar at rohitparih@gmail.com, or you can also contact support@bloggios.com.
  - This software is provided as-is, and no warranties or guarantees are made regarding its fitness for any particular purpose or compatibility with any specific technology.
  - For license information and terms of use, please refer to the accompanying LICENSE file or visit http://www.apache.org/licenses/LICENSE-2.0.
  - Unauthorized use of this software may result in legal action and liability for damages.
  -
  - Licensed under the Apache License, Version 2.0 (the "License");
  - you may not use this file except in compliance with the License.
  - You may obtain a copy of the License at
  -
  -      http://www.apache.org/licenses/LICENSE-2.0
  -
  - Unless required by applicable law or agreed to in writing, software distributed under the License is distributed on an "AS IS" BASIS, WITHOUT WARRANTIES OR CONDITIONS OF ANY KIND, either express or implied.
  - See the License for the specific language governing permissions and limitations under the License.
  -->

<svg fill="#000000" width="256px" height="256px" viewBox="0 0 24 24" id="notification-circle" data-name="Line Color"
     xmlns="http://www.w3.org/2000/svg" class="icon line-color">
    <g id="SVGRepo_bgCarrier" stroke-width="0" />
    <g id="SVGRepo_tracerCarrier" stroke-linecap="round" stroke-linejoin="round" />
    <g id="SVGRepo_iconCarrier">
        <path id="secondary" d="M15,18H9a3,3,0,0,0,3,3h0A3,3,0,0,0,15,18Z"
              style="fill: none; stroke: #ffffff; stroke-linecap: round; stroke-linejoin: round; stroke-width: 2;" />
        <path id="primary"
              d="M18,9v4l1.38,1.38A2.12,2.12,0,0,1,17.88,18H6.12a2.12,2.12,0,0,1-1.5-3.62L6,13V9a6,6,0,0,1,6-6,6,6,0,0,1,2.88.73"
              style="fill: none; stroke: #ffffff; stroke-linecap: round; stroke-linejoin: round; stroke-width: 2;" />
        <path id="secondary-2" data-name="secondary"
              d="M14,6a3,3,0,0,0,3,3h0a3,3,0,0,0,3-3h0a3,3,0,0,0-3-3h0a3,3,0,0,0-3,3Z"
              style="fill: none; fill: #FF2323; stroke-linecap: round; stroke-linejoin: round; stroke-width: 2;"/>
    </g>
</svg>