<!--
  - Copyright © 2023-2024 Rohit Parihar and Bloggios
  - All rights reserved.
  - This software is the property of Rohit Parihar and is protected by copyright law.
  - The software, including its source code, documentation, and associated files, may not be used, copied, modified, distributed, or sublicensed without the express written consent of Rohit Parihar.
  - For licensing and usage inquiries, please contact Rohit Parihar at rohitparih@gmail.com, or you can also contact support@bloggios.com.
  - This software is provided as-is, and no warranties or guarantees are made regarding its fitness for any particular purpose or compatibility with any specific technology.
  - For license information and terms of use, please refer to the accompanying LICENSE file or visit http://www.apache.org/licenses/LICENSE-2.0.
  - Unauthorized use of this software may result in legal action and liability for damages.
  -
  - Licensed under the Apache License, Version 2.0 (the "License");
  - you may not use this file except in compliance with the License.
  - You may obtain a copy of the License at
  -
  -      http://www.apache.org/licenses/LICENSE-2.0
  -
  - Unless required by applicable law or agreed to in writing, software distributed under the License is distributed on an "AS IS" BASIS, WITHOUT WARRANTIES OR CONDITIONS OF ANY KIND, either express or implied.
  - See the License for the specific language governing permissions and limitations under the License.
  -->

<svg viewBox="0 -28.5 256 256" version="1.1" xmlns="http://www.w3.org/2000/svg" fill="#000000"><g id="SVGRepo_bgCarrier" stroke-width="0"></g><g id="SVGRepo_tracerCarrier" stroke-linecap="round" stroke-linejoin="round"></g><g id="SVGRepo_iconCarrier"> <title>path21</title> <g stroke="none" stroke-width="1" fill="none" fill-rule="evenodd"> <path d="M118.431947,187.698037 C151.322003,181.887937 178.48731,177.08008 178.799309,177.013916 L179.366585,176.893612 L148.31513,139.958881 C131.236843,119.644776 117.26369,102.945381 117.26369,102.849118 C117.26369,102.666861 149.32694,14.3716012 149.507189,14.057257 C149.567455,13.952452 171.38747,51.62411 202.400338,105.376064 C231.435152,155.699606 255.372949,197.191547 255.595444,197.580359 L255.999996,198.287301 L157.315912,198.274572 L58.6318456,198.261895 L118.431947,187.698073 L118.431947,187.698037 Z M-4.03864498e-06,176.434723 C-4.03864498e-06,176.382721 14.631291,150.983941 32.5139844,119.992969 L65.0279676,63.6457518 L102.919257,31.8473052 C123.759465,14.3581634 140.866667,0.0274832751 140.935253,0.00062917799 C141.003839,-0.0247829554 140.729691,0.665213042 140.326034,1.53468179 C139.922377,2.40415053 121.407304,42.1170321 99.1814268,89.7855264 L58.7707514,176.455514 L29.3853737,176.492355 C13.2234196,176.512639 -4.03864498e-06,176.486664 -4.03864498e-06,176.434703 L-4.03864498e-06,176.434723 Z" fill="#0089D6" fill-rule="nonzero"> </path> </g> </g></svg>