<!--
  - Copyright © 2023-2024 Rohit Parihar and Bloggios
  - All rights reserved.
  - This software is the property of Rohit Parihar and is protected by copyright law.
  - The software, including its source code, documentation, and associated files, may not be used, copied, modified, distributed, or sublicensed without the express written consent of Rohit Parihar.
  - For licensing and usage inquiries, please contact Rohit Parihar at rohitparih@gmail.com, or you can also contact support@bloggios.com.
  - This software is provided as-is, and no warranties or guarantees are made regarding its fitness for any particular purpose or compatibility with any specific technology.
  - For license information and terms of use, please refer to the accompanying LICENSE file or visit http://www.apache.org/licenses/LICENSE-2.0.
  - Unauthorized use of this software may result in legal action and liability for damages.
  -
  - Licensed under the Apache License, Version 2.0 (the "License");
  - you may not use this file except in compliance with the License.
  - You may obtain a copy of the License at
  -
  -      http://www.apache.org/licenses/LICENSE-2.0
  -
  - Unless required by applicable law or agreed to in writing, software distributed under the License is distributed on an "AS IS" BASIS, WITHOUT WARRANTIES OR CONDITIONS OF ANY KIND, either express or implied.
  - See the License for the specific language governing permissions and limitations under the License.
  -->

<svg xmlns="http://www.w3.org/2000/svg" aria-label="JavaScript" role="img" viewBox="0 0 512 512" fill="#000000"><g id="SVGRepo_bgCarrier" stroke-width="0"></g><g id="SVGRepo_tracerCarrier" stroke-linecap="round" stroke-linejoin="round"></g><g id="SVGRepo_iconCarrier"><rect width="512" height="512" rx="15%" fill="#f7df1e"></rect><path d="M324 370c10 17 24 29 47 29c20 0 33-10 33 -24c0-16 -13 -22 -35 -32l-12-5c-35-15 -58 -33 -58 -72c0-36 27 -64 70 -64c31 0 53 11 68 39l-37 24c-8-15 -17 -21 -31 -21c-14 0-23 9 -23 21c0 14 9 20 30 29l12 5c41 18 64 35 64 76c0 43-34 67 -80 67c-45 0-74 -21 -88 -49zm-170 4c8 13 14 25 31 25c16 0 26-6 26 -30V203h48v164c0 50-29 72 -72 72c-39 0-61 -20 -72 -44z"></path></g></svg>