<!--
  - Copyright © 2023-2024 Rohit Parihar and Bloggios
  - All rights reserved.
  - This software is the property of Rohit Parihar and is protected by copyright law.
  - The software, including its source code, documentation, and associated files, may not be used, copied, modified, distributed, or sublicensed without the express written consent of Rohit Parihar.
  - For licensing and usage inquiries, please contact Rohit Parihar at rohitparih@gmail.com, or you can also contact support@bloggios.com.
  - This software is provided as-is, and no warranties or guarantees are made regarding its fitness for any particular purpose or compatibility with any specific technology.
  - For license information and terms of use, please refer to the accompanying LICENSE file or visit http://www.apache.org/licenses/LICENSE-2.0.
  - Unauthorized use of this software may result in legal action and liability for damages.
  -
  - Licensed under the Apache License, Version 2.0 (the "License");
  - you may not use this file except in compliance with the License.
  - You may obtain a copy of the License at
  -
  -      http://www.apache.org/licenses/LICENSE-2.0
  -
  - Unless required by applicable law or agreed to in writing, software distributed under the License is distributed on an "AS IS" BASIS, WITHOUT WARRANTIES OR CONDITIONS OF ANY KIND, either express or implied.
  - See the License for the specific language governing permissions and limitations under the License.
  -->

<svg width="256px" height="256px" viewBox="0 0 15 15" fill="none" xmlns="http://www.w3.org/2000/svg" stroke=""><g id="SVGRepo_bgCarrier" stroke-width="0"></g><g id="SVGRepo_tracerCarrier" stroke-linecap="round" stroke-linejoin="round"></g><g id="SVGRepo_iconCarrier"> <path d="M4.5 4.5L4.90534 4.20725C4.77836 4.03144 4.55252 3.95753 4.34617 4.02425C4.13981 4.09098 4 4.28313 4 4.5H4.5ZM7.5 14C3.91015 14 1 11.0899 1 7.5H0C0 11.6421 3.35786 15 7.5 15V14ZM14 7.5C14 11.0899 11.0899 14 7.5 14V15C11.6421 15 15 11.6421 15 7.5H14ZM7.5 1C11.0899 1 14 3.91015 14 7.5H15C15 3.35786 11.6421 0 7.5 0V1ZM7.5 0C3.35786 0 0 3.35786 0 7.5H1C1 3.91015 3.91015 1 7.5 1V0ZM5 12V4.5H4V12H5ZM4.09466 4.79275L10.5947 13.7927L11.4053 13.2073L4.90534 4.20725L4.09466 4.79275ZM10 4V10H11V4H10Z" fill="#f5f5f5"></path> </g></svg>