<!--
  - Copyright © 2023-2024 Rohit Parihar and Bloggios
  - All rights reserved.
  - This software is the property of Rohit Parihar and is protected by copyright law.
  - The software, including its source code, documentation, and associated files, may not be used, copied, modified, distributed, or sublicensed without the express written consent of Rohit Parihar.
  - For licensing and usage inquiries, please contact Rohit Parihar at rohitparih@gmail.com, or you can also contact support@bloggios.com.
  - This software is provided as-is, and no warranties or guarantees are made regarding its fitness for any particular purpose or compatibility with any specific technology.
  - For license information and terms of use, please refer to the accompanying LICENSE file or visit http://www.apache.org/licenses/LICENSE-2.0.
  - Unauthorized use of this software may result in legal action and liability for damages.
  -
  - Licensed under the Apache License, Version 2.0 (the "License");
  - you may not use this file except in compliance with the License.
  - You may obtain a copy of the License at
  -
  -     http://www.apache.org/licenses/LICENSE-2.0
  -
  - Unless required by applicable law or agreed to in writing, software
  - distributed under the License is distributed on an "AS IS" BASIS,
  - WITHOUT WARRANTIES OR CONDITIONS OF ANY KIND, either express or implied.
  - See the License for the specific language governing permissions and
  - limitations under the License.
  -->

<svg width="256px" height="256px" viewBox="-6.16 -6.16 34.32 34.32" id="meteor-icon-kit__regular-bold" fill="none" xmlns="http://www.w3.org/2000/svg" stroke="#4258ff" stroke-width="2.2" transform="rotate(0)matrix(-1, 0, 0, 1, 0, 0)">
    <g id="SVGRepo_bgCarrier" stroke-width="0">
        <rect x="-6.16" y="-6.16" width="34.32" height="34.32" rx="6.864" fill="#ffffff" strokewidth="0"/>
    </g>
    <g id="SVGRepo_tracerCarrier" stroke-linecap="round" stroke-linejoin="round" stroke="#ffffff" stroke-width="1.364"/>
    <g id="SVGRepo_iconCarrier">
        <path fill-rule="evenodd" clip-rule="evenodd" d="M1 2C0.44772 2 0 1.55228 0 1C0 0.44772 0.44772 0 1 0H8C11.3137 0 14 2.68629 14 6C14 7.72715 13.2702 9.2839 12.1022 10.3786C14.3791 11.2304 16 13.4259 16 16C16 19.3137 13.3137 22 10 22H1C0.44772 22 0 21.5523 0 21C0 20.4477 0.44772 20 1 20V2zM3 2V10H8C10.2091 10 12 8.20914 12 6C12 3.79086 10.2091 2 8 2H3zM3 12V20H10C12.2091 20 14 18.2091 14 16C14 13.7909 12.2091 12 10 12H3z" fill="#4258ff"/>
    </g>
</svg>