<?xml version="1.0" encoding="UTF-8" standalone="no" ?>
<!DOCTYPE svg PUBLIC "-//W3C//DTD SVG 1.1//EN" "http://www.w3.org/Graphics/SVG/1.1/DTD/svg11.dtd">
<svg xmlns="http://www.w3.org/2000/svg" version="1.1" width="800" height="800" viewBox="0 0 800 800"
     xml:space="preserve">
<desc>Created with Fabric.js 3.6.6</desc>
    <defs>
</defs>
    <g transform="matrix(0.98 0 0 0.98 398.28 403.89)"  >
<g style=""   >
		<g transform="matrix(1 0 0 1 -490 -490)"  >
<rect style="stroke: none; stroke-width: 1; stroke-dasharray: none; stroke-linecap: butt; stroke-dashoffset: 0; stroke-linejoin: miter; stroke-miterlimit: 4; fill: rgb(255,255,255); fill-opacity: 0; fill-rule: nonzero; opacity: 1;"  x="-50" y="-50" rx="0" ry="0" width="100" height="100" />
</g>
    <g transform="matrix(1 0 0 1 0 0)" id="8"  >
<rect style="stroke: none; stroke-width: 1; stroke-dasharray: none; stroke-linecap: butt; stroke-dashoffset: 0; stroke-linejoin: miter; stroke-miterlimit: 4; fill: rgb(255,255,255); fill-rule: nonzero; opacity: 1; visibility: hidden;" vector-effect="non-scaling-stroke"  x="-540" y="-540" rx="0" ry="0" width="1080" height="1080" />
</g>
    <g transform="matrix(-23.31 0 0 23.31 0 0)"  >
<rect style="stroke: rgb(255,255,255); stroke-width: 0; stroke-dasharray: none; stroke-linecap: butt; stroke-dashoffset: 0; stroke-linejoin: miter; stroke-miterlimit: 4; fill: rgb(66,88,255); fill-rule: nonzero; opacity: 1;" vector-effect="non-scaling-stroke"  x="-17.16" y="-17.16" rx="6.864" ry="6.864" width="34.32" height="34.32" />
</g>
    <g transform="matrix(-23.31 0 0 23.31 0 0)"  >
<path style="stroke: rgb(255,255,255); stroke-width: 38; stroke-dasharray: none; stroke-linecap: butt; stroke-dashoffset: 0; stroke-linejoin: miter; stroke-miterlimit: 4; fill: rgb(255,255,255); fill-rule: evenodd; opacity: 1;" vector-effect="non-scaling-stroke"  transform=" translate(-8, -11)" d="M 1 2 C 0.44772 2 0 1.55228 0 1 C 0 0.44772 0.44772 0 1 0 L 8 0 C 11.3137 0 14 2.68629 14 6 C 14 7.72715 13.2702 9.2839 12.1022 10.3786 C 14.3791 11.2304 16 13.4259 16 16 C 16 19.3137 13.3137 22 10 22 L 1 22 C 0.44772 22 0 21.5523 0 21 C 0 20.4477 0.44772 20 1 20 L 1 2 z M 3 2 L 3 10 L 8 10 C 10.2091 10 12 8.20914 12 6 C 12 3.79086 10.2091 2 8 2 L 3 2 z M 3 12 L 3 20 L 10 20 C 12.2091 20 14 18.2091 14 16 C 14 13.7909 12.2091 12 10 12 L 3 12 z" stroke-linecap="round" />
</g>
</g>
</g>
</svg>