<?xml version="1.0" encoding="UTF-8"?>
<svg version="1.1" xmlns="http://www.w3.org/2000/svg" width="160" height="161">
    <path d="M0 0 C5.48492539 0.32118932 8.97621202 2.56416122 13.375 5.5625 C14.01566406 5.98724609 14.65632813 6.41199219 15.31640625 6.84960938 C16.8837215 7.89058742 18.44273501 8.94404634 20 10 C19.67 11.32 19.34 12.64 19 14 C22.87498404 14.02917234 26.74993958 14.04685673 30.625 14.0625 C32.26662109 14.07506836 32.26662109 14.07506836 33.94140625 14.08789062 C35.00488281 14.09111328 36.06835938 14.09433594 37.1640625 14.09765625 C38.13811035 14.10289307 39.1121582 14.10812988 40.11572266 14.11352539 C43.15048453 13.99407692 46.01428943 13.54082482 49 13 C53.0747503 12.75348486 57.08685471 12.69561824 61 14 C61.02578125 13.27425781 61.0515625 12.54851563 61.078125 11.80078125 C62.41032951 7.7533633 65.27297769 6.30257127 68.75 4.1875 C69.37132813 3.78080078 69.99265625 3.37410156 70.6328125 2.95507812 C73.22952717 1.32528358 75.68013757 0.08444746 78.6484375 -0.69921875 C82.52238905 0.4526705 83.92175843 3.6979945 85.875 7 C86.56468872 8.1147168 86.56468872 8.1147168 87.26831055 9.25195312 C88.29175545 10.90830242 89.30751405 12.5694175 90.31689453 14.234375 C92.78646762 18.2922984 95.31240152 22.3144083 97.83447266 26.33984375 C99.12562409 28.40262629 100.41322538 30.46763643 101.69677734 32.53515625 C102.29828613 33.50324219 102.89979492 34.47132812 103.51953125 35.46875 C104.09912598 36.40460937 104.6787207 37.34046875 105.27587891 38.3046875 C106.92380174 40.88087953 108.6735557 43.3548042 110.44921875 45.84375 C112.16837727 48.45096034 113.04157478 50.15571645 113.859375 53.21875 C112.4757867 57.69654488 109.15933628 59.21391754 105.25 61.5 C104.52039063 61.96664062 103.79078125 62.43328125 103.0390625 62.9140625 C98.95454633 65.39447778 98.95454633 65.39447778 97 66 C94.88183594 65.17382812 94.88183594 65.17382812 93 64 C91.02693691 62.72283504 91.02693691 62.72283504 88.90234375 63.66796875 C86.80463799 64.8163712 86.80463799 64.8163712 86.56640625 66.98828125 C86.56511719 67.75527344 86.56382813 68.52226563 86.5625 69.3125 C86.31196477 73.10108149 86.08849714 73.88588527 83.625 77.0625 C81 79 81 79 78 79 C77.938125 79.7425 77.87625 80.485 77.8125 81.25 C76.73727351 84.88922812 75.1385222 85.95631113 72 88 C71.29875 88.12375 70.5975 88.2475 69.875 88.375 C67.6282954 88.88046779 67.6282954 88.88046779 66.5 91.9375 C66.005 92.948125 65.51 93.95875 65 95 C62.02919589 97.10831259 60.80885177 97 57 97 C56.9175 97.7425 56.835 98.485 56.75 99.25 C55.81602546 102.67457332 54.85448107 103.89669816 52 106 C47.95048618 107.12486495 45.79904934 107.31961974 41.875 105.75 C40.92625 105.1725 39.9775 104.595 39 104 C38.05125 103.443125 37.1025 102.88625 36.125 102.3125 C35.42375 101.879375 34.7225 101.44625 34 101 C33.0409375 101.7734375 33.0409375 101.7734375 32.0625 102.5625 C27.8155998 104.55594295 24.44658175 104.45539113 20 103 C17.5097652 101.17689508 16.63977764 99.75059475 15 97 C14.6875 94.125 14.6875 94.125 15 92 C13.9275 91.938125 12.855 91.87625 11.75 91.8125 C8 91 8 91 5.625 88.75 C4.03393533 86.05742902 3.35259093 84.08517061 3 81 C2.113125 80.95875 1.22625 80.9175 0.3125 80.875 C-3.24219491 79.93602399 -4.88209871 78.75818601 -7.09375 75.81640625 C-9.29034085 71.41375648 -8.28338621 66.58352218 -7 62 C-7.495 61.505 -7.495 61.505 -8 61 C-8.2475 61.639375 -8.495 62.27875 -8.75 62.9375 C-10 65 -10 65 -11.83496094 65.74584961 C-14.53747932 66.06309382 -15.56478311 65.49815188 -17.890625 64.12890625 C-18.59960938 63.71962891 -19.30859375 63.31035156 -20.0390625 62.88867188 C-20.76867188 62.45103516 -21.49828125 62.01339844 -22.25 61.5625 C-22.99507812 61.12873047 -23.74015625 60.69496094 -24.5078125 60.24804688 C-26.34499737 59.1763557 -28.17337974 58.08960023 -30 57 C-29.70898364 49.84501155 -26.35210656 44.6495471 -22.8125 38.5625 C-22.19479736 37.48097656 -21.57709473 36.39945313 -20.94067383 35.28515625 C-19.30629265 32.4313372 -17.66174476 29.58378119 -16.0098877 26.74005127 C-14.99843854 24.99730958 -13.99040184 23.25263804 -12.98339844 21.50732422 C-9.89201206 16.15311579 -6.79118978 10.80445954 -3.66796875 5.46875 C-3.17578857 4.62763672 -2.6836084 3.78652344 -2.17651367 2.91992188 C-1 1 -1 1 0 0 Z M2 7 C1.59797363 7.72888428 1.19594727 8.45776855 0.78173828 9.20874023 C-1.10142916 12.6196642 -2.98762158 16.02890517 -4.875 19.4375 C-5.21403351 20.05036865 -5.55306702 20.6632373 -5.90237427 21.29467773 C-10.52188504 29.63896434 -15.20719611 37.93448276 -20.20458984 46.06030273 C-22.47094495 49.75467039 -22.47094495 49.75467039 -23 54 C-21.39125 55.051875 -21.39125 55.051875 -19.75 56.125 C-19.14671875 56.51945312 -18.5434375 56.91390625 -17.921875 57.3203125 C-16.00339426 58.22006782 -16.00339426 58.22006782 -14.07373047 57.35913086 C-11.37195231 55.58837515 -10.43174225 53.77057671 -8.8984375 50.93359375 C-8.3300415 49.89799316 -7.76164551 48.86239258 -7.17602539 47.79541016 C-6.58168701 46.6872998 -5.98734863 45.57918945 -5.375 44.4375 C-4.1333452 42.16175839 -2.88984534 39.88702251 -1.64453125 37.61328125 C-1.03174316 36.49131348 -0.41895508 35.3693457 0.21240234 34.21337891 C3.07466209 29.06819143 6.11794956 24.03063078 9.24267578 19.04077148 C10.23741942 17.40415642 11.12990457 15.7061529 12 14 C10.52440331 9.57320993 8.09942632 9.08567304 4 7 C3.34 7 2.68 7 2 7 Z M76 7 C74.1051796 7.97229848 74.1051796 7.97229848 72.3125 9.4375 C71.68988281 9.91058594 71.06726563 10.38367188 70.42578125 10.87109375 C69.95527344 11.24363281 69.48476562 11.61617187 69 12 C69.5689266 15.82409907 70.63271855 18.40273754 72.73828125 21.6328125 C73.30595215 22.51308105 73.87362305 23.39334961 74.45849609 24.30029297 C75.07031738 25.23244629 75.68213867 26.16459961 76.3125 27.125 C77.58243314 29.08828177 78.85195623 31.05182882 80.12109375 33.015625 C80.76546387 34.00755859 81.40983398 34.99949219 82.07373047 36.02148438 C85.04494061 40.61575101 87.96063281 45.24454745 90.875 49.875 C91.87228108 51.45580157 92.86966537 53.03653803 93.8671875 54.6171875 C94.92292969 56.29167969 94.92292969 56.29167969 96 58 C99.57770548 56.61702141 102.74845193 55.04383021 106 53 C104.43346621 46.8260139 100.99861102 41.95626432 97.5625 36.6875 C96.94012451 35.72432861 96.31774902 34.76115723 95.67651367 33.76879883 C94.40315936 31.79881706 93.12752493 29.83030723 91.84960938 27.86328125 C90.12402096 25.19199021 88.42396725 22.50665822 86.734375 19.8125 C86.2386499 19.02786377 85.7429248 18.24322754 85.23217773 17.43481445 C84.30405444 15.96561841 83.38144416 14.49292135 82.46508789 13.01635742 C80.04919149 9.04321111 80.04919149 9.04321111 76 7 Z M32.25 29.9375 C31.48300781 30.65357422 30.71601562 31.36964844 29.92578125 32.10742188 C25.23146984 36.50759505 25.23146984 36.50759505 22 42 C23.485 42.99 23.485 42.99 25 44 C25.49927002 43.67201416 25.99854004 43.34402832 26.51293945 43.00610352 C28.77720091 41.52142389 31.04479602 40.04191561 33.3125 38.5625 C34.09818359 38.04623047 34.88386719 37.52996094 35.69335938 36.99804688 C36.45068359 36.50498047 37.20800781 36.01191406 37.98828125 35.50390625 C38.68477783 35.04830322 39.38127441 34.5927002 40.09887695 34.12329102 C47.75820445 29.59772715 57.79615331 32.4452947 66 34 C65.42655063 36.86724686 65.1385485 37.8614515 63 40 C67.76160398 45.59488467 72.75800566 50.85527978 78 56 C79.33449731 57.33216834 80.66814404 58.66519093 82 60 C83.65 59.01 85.3 58.02 87 57 C86.42991205 52.89462941 85.11737646 50.23512194 82.83203125 46.796875 C82.18556641 45.81589844 81.53910156 44.83492187 80.87304688 43.82421875 C80.19306641 42.80972656 79.51308594 41.79523438 78.8125 40.75 C78.15185547 39.75097656 77.49121094 38.75195312 76.81054688 37.72265625 C75.50325552 35.74816881 74.18843206 33.77864538 72.86572266 31.81445312 C71.66036274 29.99616091 70.48556556 28.15706394 69.34912109 26.29492188 C68.59429443 25.07385742 68.59429443 25.07385742 67.82421875 23.828125 C67.39584717 23.11043945 66.96747559 22.39275391 66.52612305 21.65332031 C63.87085712 18.77674683 60.61312761 19.03990317 56.87890625 18.796875 C55.78449219 18.78140625 54.69007812 18.7659375 53.5625 18.75 C52.47066406 18.72421875 51.37882812 18.6984375 50.25390625 18.671875 C42.41802615 19.46204778 37.68228294 24.73350339 32.25 29.9375 Z M19.63671875 19.98828125 C17.24815017 20.23240349 15.99413283 20.63627045 14 22 C11.29285427 25.44344507 9.21704918 29.14098814 7.13867188 32.97753906 C5.89890569 35.17955944 4.56448391 37.30083249 3.203125 39.4296875 C2.73374512 40.17790771 2.26436523 40.92612793 1.78076172 41.69702148 C0.85769562 43.16818814 -0.07785494 44.63160942 -1.02685547 46.08618164 C-3.73046272 50.44702188 -3.73046272 50.44702188 -3.2734375 55.50390625 C-2.85320313 56.32761719 -2.43296875 57.15132812 -2 58 C-0.80375 57.938125 0.3925 57.87625 1.625 57.8125 C5.75714528 57.8125 8.47788178 58.73578114 12 61 C14 64 14 64 14.125 66.5 C14.41375 67.325 14.7025 68.15 15 69 C16.74261182 69.76329852 16.74261182 69.76329852 18.8125 70.3125 C22.69236496 71.50736107 22.69236496 71.50736107 24.13671875 73.8203125 C24.71470158 75.23780885 25.29151504 76.65578254 25.8671875 78.07421875 C27.61288472 81.04190403 30.05389178 81.85389205 33.1953125 83.015625 C35.56542708 84.30841477 36.11606578 85.47915055 37 88 C36.896875 89.134375 36.79375 90.26875 36.6875 91.4375 C36.63655871 94.89811748 36.63655871 94.89811748 38.375 96.5625 C41.17722309 98.68832442 43.31302079 99.89313657 46.8125 100.4375 C49.19934538 100.17045475 49.19934538 100.17045475 51 98 C51.05081138 96.02418332 51.05081138 96.02418332 50 94 C49.154375 93.34 48.30875 92.68 47.4375 92 C46.633125 91.34 45.82875 90.68 45 90 C45 88.68 45 87.36 45 86 C48.37617734 86.38584884 49.86254954 86.88316711 52.5 89.125 C54.85769073 91.3284734 54.85769073 91.3284734 57.8125 90.75 C58.534375 90.5025 59.25625 90.255 60 90 C60.33 88.35 60.66 86.7 61 85 C60.01 84.2575 59.02 83.515 58 82.75 C56.3125 81.484375 56.3125 81.484375 55 80 C55 78.68 55 77.36 55 76 C61.5631068 78.65048544 61.5631068 78.65048544 64.1875 80.75 C65.92573518 82.22296809 65.92573518 82.22296809 68.125 81.875 C70.35325825 81.03281253 70.35325825 81.03281253 72 78 C71.4225 77.62488281 70.845 77.24976563 70.25 76.86328125 C69.5075 76.35152344 68.765 75.83976562 68 75.3125 C67.2575 74.81363281 66.515 74.31476563 65.75 73.80078125 C64 72 64 72 63.75 69.29296875 C63.8325 68.53628906 63.915 67.77960938 64 67 C67.12363511 68.10245945 69.32148366 69.24111274 72 71.25 C74.8676386 73.39563316 74.8676386 73.39563316 77.875 72.25 C78.57625 71.8375 79.2775 71.425 80 71 C80.51135952 68.7692183 80.51135952 68.7692183 80 66 C78.24726575 63.61891245 76.10531656 61.68788118 73.9375 59.6875 C72.7338405 58.53446625 71.5320032 57.37952717 70.33203125 56.22265625 C69.75275879 55.66852051 69.17348633 55.11438477 68.57666016 54.54345703 C66.65048112 52.6578417 64.87185722 50.67705527 63.125 48.625 C57.46958157 41.63452361 57.46958157 41.63452361 50.125 36.75 C44.33281629 37.2133747 39.90115913 40.67908212 35.22265625 43.9296875 C26.96873507 49.56816863 26.96873507 49.56816863 23 49.25 C20 48 20 48 18 45.9375 C16.57207019 41.74295619 16.93849666 39.31678025 18 35 C19.31517081 34.29818239 20.65297705 33.63855413 22 33 C23.7338678 31.40308858 25.41817377 29.75146858 27.0625 28.0625 C27.91972656 27.18722656 28.77695313 26.31195313 29.66015625 25.41015625 C30.43230469 24.61480469 31.20445313 23.81945312 32 23 C32.99784251 21.99784715 33.99671595 20.99670513 35 20 C29.8730688 19.85932201 24.76224924 20.0136971 19.63671875 19.98828125 Z M-0.875 65.125 C-2.52149743 67.86916239 -2.39964378 69.8694571 -2 73 C0.74841911 75.27671738 0.74841911 75.27671738 3.5 74.8125 C6.25387823 73.91748958 7.46886237 73.46683286 9 71 C8.85909916 67.16733708 8.85909916 67.16733708 7 64 C2.87204872 63.62418498 2.87204872 63.62418498 -0.875 65.125 Z M10.75 76.6875 C8.80166779 78.87392713 8.80166779 78.87392713 8.625 81.625 C8.79015749 84.18227196 8.79015749 84.18227196 11 86 C14.33058011 86.52588107 15.60020349 86.28406594 18.375 84.3125 C20.27422969 82.11216147 20.27422969 82.11216147 19.875 79.375 C19.13532087 76.85594875 19.13532087 76.85594875 17 75 C13.06458333 74.6 13.06458333 74.6 10.75 76.6875 Z M22.25 88.1875 C19.68612791 90.75859402 19.68612791 90.75859402 20.125 93.75 C20.80091898 95.93516519 20.80091898 95.93516519 22 97 C26.14839745 97.38880902 26.14839745 97.38880902 29.875 95.8125 C31.40659584 93.34492892 31.42822025 91.85480169 31 89 C29.79081118 87.12359581 29.79081118 87.12359581 28 86 C24.80564666 85.68873822 24.80564666 85.68873822 22.25 88.1875 Z " fill="#f5f5f5" transform="translate(39,26)"/>
    <path d="M0 0 C2.15377564 2.62198774 3.40072174 4.64404172 4 8 C2.02 8.33 0.04 8.66 -2 9 C-2 7.35 -2 5.7 -2 4 C-3.65 4 -5.3 4 -7 4 C-4.68143083 2.45428722 -2.49361571 1.20381448 0 0 Z " fill="#f5f5f5" transform="translate(56,114)"/>
    <path d="M0 0 C1.31223496 3.93670488 0.24296256 6.12488144 -1 10 C-1.99 9.67 -2.98 9.34 -4 9 C-2.80100302 5.9168649 -1.52299523 2.93720508 0 0 Z " fill="#f5f5f5" transform="translate(36,30)"/>
</svg>
