<?xml version="1.0" encoding="UTF-8"?>
<!--
  - Copyright © 2023-2024 Rohit Parihar and Bloggios
  - All rights reserved.
  - This software is the property of Rohit Parihar and is protected by copyright law.
  - The software, including its source code, documentation, and associated files, may not be used, copied, modified, distributed, or sublicensed without the express written consent of Rohit Parihar.
  - For licensing and usage inquiries, please contact Rohit Parihar at rohitparih@gmail.com, or you can also contact support@bloggios.com.
  - This software is provided as-is, and no warranties or guarantees are made regarding its fitness for any particular purpose or compatibility with any specific technology.
  - For license information and terms of use, please refer to the accompanying LICENSE file or visit http://www.apache.org/licenses/LICENSE-2.0.
  - Unauthorized use of this software may result in legal action and liability for damages.
  -
  - Licensed under the Apache License, Version 2.0 (the "License");
  - you may not use this file except in compliance with the License.
  - You may obtain a copy of the License at
  -      
  -      http://www.apache.org/licenses/LICENSE-2.0
  -      
  - Unless required by applicable law or agreed to in writing, software distributed under the License is distributed on an "AS IS" BASIS, WITHOUT WARRANTIES OR CONDITIONS OF ANY KIND, either express or implied.
  - See the License for the specific language governing permissions and limitations under the License.
  -->

<svg version="1.1" xmlns="http://www.w3.org/2000/svg" width="120" height="121">
    <path d="M0 0 C0.8859787 -0.0071553 1.7719574 -0.01431061 2.68478394 -0.02168274 C4.14662613 -0.02571609 4.14662613 -0.02571609 5.63800049 -0.02983093 C6.66253326 -0.03640213 7.68706604 -0.04297333 8.74264526 -0.04974365 C12.14428779 -0.06950716 15.54588611 -0.08114625 18.9475708 -0.09111023 C20.10769936 -0.09518576 21.26782791 -0.09926128 22.46311188 -0.10346031 C28.60376305 -0.12433438 34.74439179 -0.13863015 40.8850708 -0.147995 C47.23169884 -0.15906033 53.57797634 -0.19345825 59.92448044 -0.23316669 C64.80066586 -0.25929868 69.67676737 -0.26768383 74.55301666 -0.27127647 C76.89259457 -0.27615149 79.2321685 -0.28779136 81.57167816 -0.30631447 C84.846673 -0.33063171 88.12075572 -0.32975401 91.39581299 -0.32279968 C92.8455098 -0.34201477 92.8455098 -0.34201477 94.32449341 -0.36161804 C100.10715831 -0.3168664 103.36020579 0.31363761 107.7756958 4.14717102 C109.25514586 7.10607115 108.94031951 10.11797983 108.95269775 13.36323547 C108.95926895 14.106521 108.96584015 14.84980652 108.97261047 15.61561584 C108.99235481 18.0805623 109.00400863 20.5454478 109.01397705 23.01045227 C109.01805258 23.85188467 109.02212811 24.69331707 109.02632713 25.56024742 C109.04719287 30.01394277 109.0614923 34.46760727 109.07086182 38.92134094 C109.08192649 43.52160501 109.11632532 48.12138539 109.15603352 52.72147846 C109.18217934 56.2585439 109.19055183 59.79549375 109.1941433 63.33264732 C109.19901466 65.02831984 109.21064435 66.72398701 109.22918129 68.4195652 C109.25353003 70.79440751 109.25261607 73.16799405 109.2456665 75.54292297 C109.25847656 76.24181137 109.27128662 76.94069977 109.28448486 77.6607666 C109.2471371 81.16690634 108.82474413 83.06960526 106.93382263 86.05993652 C103.4973914 89.38348438 100.59205502 89.26806624 96.01397705 89.24482727 C94.89571533 89.24160461 93.77745361 89.23838196 92.62530518 89.23506165 C91.45805908 89.22668274 90.29081299 89.21830383 89.0881958 89.20967102 C87.90934814 89.2051593 86.73050049 89.20064758 85.51593018 89.19599915 C82.60246791 89.18420375 79.68910717 89.16774372 76.7756958 89.14717102 C76.8066333 89.93478821 76.8375708 90.7224054 76.8694458 91.53388977 C76.7756958 94.14717102 76.7756958 94.14717102 75.2756958 95.95967102 C74.7806958 96.35154602 74.2856958 96.74342102 73.7756958 97.14717102 C73.95745361 97.69244446 74.13921143 98.2377179 74.32647705 98.79951477 C74.85551545 100.38662996 75.37992677 101.97529202 75.9006958 103.56513977 C76.47046339 105.24646287 77.07324185 106.91707141 77.7131958 108.57295227 C79.93178139 114.46607025 79.93178139 114.46607025 79.0881958 118.14717102 C77.7756958 120.14717102 77.7756958 120.14717102 75.7756958 121.14717102 C72.9006958 121.52217102 72.9006958 121.52217102 69.7756958 121.14717102 C66.03451444 117.30165392 64.08973252 112.88550217 62.0256958 108.02217102 C61.70987549 107.30674133 61.39405518 106.59131165 61.06866455 105.85420227 C59.75298027 102.8070547 58.7756958 100.50038747 58.7756958 97.14717102 C57.4556958 97.14717102 56.1356958 97.14717102 54.7756958 97.14717102 C54.79140625 97.76761292 54.8071167 98.38805481 54.82330322 99.02729797 C54.88565795 101.8379963 54.92468728 104.64854914 54.9631958 107.45967102 C54.98833252 108.43613586 55.01346924 109.41260071 55.03936768 110.4186554 C55.04903564 111.35644836 55.05870361 112.29424133 55.06866455 113.26045227 C55.084375 114.12452698 55.10008545 114.98860168 55.11627197 115.87886047 C54.7756958 118.14717102 54.7756958 118.14717102 53.44488525 119.92915344 C50.86016912 121.81523634 48.87629516 121.53474594 45.7756958 121.14717102 C44.10650635 119.92915344 44.10650635 119.92915344 42.7756958 118.14717102 C42.43511963 115.87886047 42.43511963 115.87886047 42.48272705 113.26045227 C42.497229 111.85376282 42.497229 111.85376282 42.51202393 110.4186554 C42.53716064 109.44219055 42.56229736 108.46572571 42.5881958 107.45967102 C42.60849854 105.97757141 42.60849854 105.97757141 42.62921143 104.4655304 C42.66457377 102.02552871 42.71392547 99.58662383 42.7756958 97.14717102 C41.4556958 97.14717102 40.1356958 97.14717102 38.7756958 97.14717102 C38.3838208 98.38467102 37.9919458 99.62217102 37.5881958 100.89717102 C31.85049162 118.02870483 31.85049162 118.02870483 27.7756958 121.14717102 C24.65758097 121.53693537 22.66550013 121.65139347 19.9006958 120.08467102 C18.13241331 117.03929562 18.10613175 114.50673803 18.7756958 111.14717102 C20.03340802 108.00700063 21.40053716 104.95999796 22.8772583 101.91670227 C24.05821081 99.22059002 24.05821081 99.22059002 22.9866333 96.84638977 C21.88480836 95.20112617 21.88480836 95.20112617 20.7756958 94.14717102 C20.73505748 92.48099987 20.7329748 90.81329007 20.7756958 89.14717102 C20.04455566 89.16288147 19.31341553 89.17859192 18.56011963 89.19477844 C15.2362242 89.25727453 11.9124526 89.29620855 8.5881958 89.33467102 C7.43770752 89.35980774 6.28721924 89.38494446 5.10186768 89.4108429 C3.99005127 89.42051086 2.87823486 89.43017883 1.73272705 89.44013977 C0.71154785 89.45585022 -0.30963135 89.47156067 -1.36175537 89.48774719 C-4.71138051 89.08922036 -6.52747185 88.14546329 -9.2243042 86.14717102 C-11.61637959 82.55905794 -11.52677215 79.96298468 -11.53070068 75.81758118 C-11.5390242 75.07414963 -11.54734772 74.33071808 -11.55592346 73.5647583 C-11.58003417 71.10519688 -11.58879679 68.64590061 -11.59539795 66.18623352 C-11.60436353 64.47613953 -11.61348536 62.76604634 -11.62275696 61.05595398 C-11.63925244 57.4698038 -11.64694807 53.88374705 -11.64984131 50.29756165 C-11.65522554 45.70501564 -11.69290413 41.11334906 -11.73858547 36.52105141 C-11.76834654 32.98825382 -11.77556465 29.45566824 -11.77656746 25.9227562 C-11.78077174 24.22986702 -11.79321451 22.53697732 -11.81408501 20.84421158 C-11.84098119 18.47400242 -11.83618103 16.10583441 -11.82366943 13.73554993 C-11.83850372 13.03823257 -11.85333801 12.34091522 -11.86862183 11.62246704 C-11.81068234 7.76269333 -11.3097201 6.25026567 -8.81184387 3.23539734 C-5.5552003 0.60718302 -4.07751276 0.02257018 0 0 Z M-6.2243042 7.14717102 C-7.35937222 10.5523751 -7.35822731 13.16713333 -7.36956787 16.758255 C-7.37292648 17.42526428 -7.3762851 18.09227356 -7.37974548 18.77949524 C-7.38924326 20.98410403 -7.39119795 23.18863679 -7.39227295 25.39326477 C-7.39548615 26.92639192 -7.39885027 28.45951876 -7.40235901 29.99264526 C-7.4083472 33.20635184 -7.41019921 36.42003153 -7.40960693 39.63374329 C-7.40950528 43.75077774 -7.42316176 47.86763985 -7.44037914 51.98463345 C-7.45149949 55.15107006 -7.45352614 58.317465 -7.45299721 61.48391914 C-7.45417711 63.00176144 -7.45859945 64.51960483 -7.46632957 66.0374279 C-7.47613106 68.16063886 -7.47325108 70.28347547 -7.46722412 72.4066925 C-7.46864914 73.61453903 -7.47007416 74.82238556 -7.47154236 76.0668335 C-7.23353904 79.03211428 -6.87660527 80.7037155 -5.2243042 83.14717102 C-2.92073282 84.29895671 -1.61802051 84.27524266 0.94425964 84.28088379 C2.25448845 84.28728127 2.25448845 84.28728127 3.59118652 84.29380798 C4.55175964 84.2933548 5.51233276 84.29290161 6.50201416 84.29243469 C7.51185867 84.2957933 8.52170319 84.29915192 9.56214905 84.3026123 C12.91329159 84.31214153 16.26438429 84.31406637 19.61553955 84.31513977 C21.93720012 84.31835084 24.25886049 84.3217148 26.58052063 84.32522583 C31.45214304 84.33122194 36.32374769 84.33306522 41.19537354 84.33247375 C47.44802161 84.33237207 53.70055628 84.3460283 59.95317745 84.36324596 C64.74946112 84.37434583 69.5457172 84.37639359 74.34201241 84.37586403 C76.64776564 84.37704704 78.95351953 84.38148665 81.25926018 84.3891964 C84.47958271 84.39895619 87.69965667 84.39613415 90.91998291 84.39009094 C92.35780624 84.3985202 92.35780624 84.3985202 93.82467651 84.40711975 C94.70098221 84.40292526 95.5772879 84.39873077 96.48014832 84.39440918 C97.24171706 84.39495395 98.00328581 84.39549871 98.7879324 84.39605999 C101.09415954 84.25771553 101.09415954 84.25771553 103.7756958 82.14717102 C104.91076383 78.74196694 104.90961891 76.12720871 104.92095947 72.53608704 C104.92431808 71.86907776 104.9276767 71.20206848 104.93113708 70.5148468 C104.94063486 68.31023801 104.94258955 66.10570525 104.94366455 63.90107727 C104.94687775 62.36795012 104.95024187 60.83482328 104.95375061 59.30169678 C104.9597388 56.0879902 104.96159081 52.87431051 104.96099854 49.66059875 C104.96089689 45.5435643 104.97455336 41.42670219 104.99177074 37.3097086 C105.00289109 34.14327198 105.00491774 30.97687704 105.00438881 27.8104229 C105.00556871 26.2925806 105.00999105 24.77473721 105.01772118 23.25691414 C105.02752266 21.13370318 105.02464268 19.01086657 105.01861572 16.88764954 C105.02004074 15.67980301 105.02146576 14.47195648 105.02293396 13.22750854 C104.78493064 10.26222776 104.42799687 8.59062655 102.7756958 6.14717102 C100.47212442 4.99538533 99.16941211 5.01909938 96.60713196 5.01345825 C95.29690315 5.00706078 95.29690315 5.00706078 93.96020508 5.00053406 C92.5193454 5.00121384 92.5193454 5.00121384 91.04937744 5.00190735 C90.03953293 4.99854874 89.02968842 4.99519012 87.98924255 4.99172974 C84.63810001 4.98220051 81.28700732 4.98027567 77.93585205 4.97920227 C75.61419148 4.9759912 73.29253111 4.97262724 70.97087097 4.96911621 C66.09924856 4.9631201 61.22764391 4.96127682 56.35601807 4.96186829 C50.10336999 4.96196997 43.85083532 4.94831375 37.59821415 4.93109608 C32.80193048 4.91999621 28.0056744 4.91794845 23.2093792 4.91847801 C20.90362596 4.917295 18.59787207 4.91285539 16.29213142 4.90514565 C13.0718089 4.89538585 9.85173493 4.89820789 6.63140869 4.9042511 C5.6728598 4.89863159 4.71431091 4.89301208 3.72671509 4.88722229 C2.41225655 4.89351402 2.41225655 4.89351402 1.07124329 4.89993286 C-0.07110983 4.89911571 -0.07110983 4.89911571 -1.23654079 4.89828205 C-3.54276794 5.03662651 -3.54276794 5.03662651 -6.2243042 7.14717102 Z M24.7756958 89.14717102 C25.1056958 90.13717102 25.4356958 91.12717102 25.7756958 92.14717102 C40.9556958 92.14717102 56.1356958 92.14717102 71.7756958 92.14717102 C72.1056958 91.15717102 72.4356958 90.16717102 72.7756958 89.14717102 C56.9356958 89.14717102 41.0956958 89.14717102 24.7756958 89.14717102 Z M30.7756958 97.14717102 C29.81224136 99.01954474 28.85516478 100.89520092 27.9006958 102.77217102 C27.36702393 103.81631165 26.83335205 104.86045227 26.2835083 105.93623352 C24.86115289 108.96518727 23.7634957 111.95360436 22.7756958 115.14717102 C24.0956958 115.14717102 25.4156958 115.14717102 26.7756958 115.14717102 C27.94682526 112.52408003 29.11275544 109.8988896 30.2756958 107.27217102 C30.60956299 106.52580383 30.94343018 105.77943665 31.28741455 105.01045227 C31.60323486 104.29502258 31.91905518 103.5795929 32.2444458 102.84248352 C32.53770752 102.18264465 32.83096924 101.52280579 33.13311768 100.8429718 C33.89380835 99.13770895 33.89380835 99.13770895 33.7756958 97.14717102 C32.7856958 97.14717102 31.7956958 97.14717102 30.7756958 97.14717102 Z M46.7756958 97.14717102 C46.7756958 103.08717102 46.7756958 109.02717102 46.7756958 115.14717102 C48.0956958 115.14717102 49.4156958 115.14717102 50.7756958 115.14717102 C50.7756958 109.20717102 50.7756958 103.26717102 50.7756958 97.14717102 C49.4556958 97.14717102 48.1356958 97.14717102 46.7756958 97.14717102 Z M63.7756958 97.14717102 C65.77182848 103.86586152 68.5048379 109.9545191 71.7756958 116.14717102 C72.7656958 115.81717102 73.7556958 115.48717102 74.7756958 115.14717102 C73.71079352 112.32637649 72.62525894 109.51692305 71.5256958 106.70967102 C71.22534424 105.90722961 70.92499268 105.10478821 70.61553955 104.2780304 C70.16114502 103.1323761 70.16114502 103.1323761 69.6975708 101.96357727 C69.42525635 101.25660706 69.15294189 100.54963684 68.87237549 99.82124329 C67.88564059 97.94389853 67.88564059 97.94389853 65.65557861 97.40864563 C65.03521729 97.32235901 64.41485596 97.23607239 63.7756958 97.14717102 Z " fill="#f5f5f5" transform="translate(11.22430419921875,-0.1471710205078125)"/>
    <path d="M0 0 C3.59658804 1.88003466 6.35625011 4.14105654 8.75 7.4375 C9.125 10.3125 9.125 10.3125 8.75 12.4375 C4 11.6875 4 11.6875 1.75 9.4375 C1.71132812 10.75814453 1.71132812 10.75814453 1.671875 12.10546875 C1.58679688 13.84763672 1.58679688 13.84763672 1.5 15.625 C1.45359375 16.77355469 1.4071875 17.92210938 1.359375 19.10546875 C0.65185769 22.97413712 -0.48805164 24.6805917 -3.25 27.4375 C-6.09832436 28.38694145 -8.09887623 28.61315794 -11.06640625 28.71875 C-11.99517578 28.75613281 -12.92394531 28.79351562 -13.88085938 28.83203125 C-15.83918766 28.9024841 -17.79752103 28.97279604 -19.75585938 29.04296875 C-20.68333984 29.08035156 -21.61082031 29.11773437 -22.56640625 29.15625 C-23.41662354 29.18654297 -24.26684082 29.21683594 -25.14282227 29.24804688 C-27.30579424 29.31317902 -27.30579424 29.31317902 -29.25 30.4375 C-30.10902832 33.45084542 -30.72476089 36.48922309 -31.37109375 39.5546875 C-32.26137259 42.47480208 -32.83490622 43.64546481 -35.25 45.4375 C-38.19131891 46.41793964 -40.07501665 46.55371202 -43.13671875 46.53515625 C-44.07451172 46.53193359 -45.01230469 46.52871094 -45.97851562 46.52539062 C-47.44321289 46.51282227 -47.44321289 46.51282227 -48.9375 46.5 C-50.41959961 46.49323242 -50.41959961 46.49323242 -51.93164062 46.48632812 C-54.37115474 46.47454303 -56.81054689 46.45809011 -59.25 46.4375 C-58.92 44.7875 -58.59 43.1375 -58.25 41.4375 C-57.40236084 41.39991577 -57.40236084 41.39991577 -56.53759766 41.36157227 C-53.98316258 41.24570044 -51.4291045 41.12293463 -48.875 41 C-47.98554687 40.96068359 -47.09609375 40.92136719 -46.1796875 40.88085938 C-44.90351562 40.81801758 -44.90351562 40.81801758 -43.6015625 40.75390625 C-42.81604004 40.71724854 -42.03051758 40.68059082 -41.22119141 40.64282227 C-39.17476504 40.546609 -39.17476504 40.546609 -37.25 39.4375 C-36.50871928 36.4497771 -35.96792446 33.44706745 -35.421875 30.41796875 C-33.79750394 26.28665168 -32.27042742 25.30664608 -28.25 23.4375 C-24.6647359 22.87039872 -21.12526146 22.78719489 -17.5 22.75 C-15.60929198 22.70801254 -13.71865571 22.66261104 -11.828125 22.61328125 C-10.99700195 22.60208252 -10.16587891 22.59088379 -9.30957031 22.5793457 C-7.18595263 22.56576871 -7.18595263 22.56576871 -5.25 21.4375 C-4.28929566 18.55538698 -4.14418117 16.73899956 -4.1875 13.75 C-4.19652344 12.94175781 -4.20554688 12.13351563 -4.21484375 11.30078125 C-4.22644531 10.68589844 -4.23804688 10.07101563 -4.25 9.4375 C-4.6625 9.9325 -5.075 10.4275 -5.5 10.9375 C-7.25 12.4375 -7.25 12.4375 -11.25 12.4375 C-11.6875 10.375 -11.6875 10.375 -11.25 7.4375 C-4.40168786 -1.10042196 -4.40168786 -1.10042196 0 0 Z " fill="#f5f5f5" transform="translate(101.25,26.5625)"/>
    <path d="M0 0 C1.06734375 -0.00257812 2.1346875 -0.00515625 3.234375 -0.0078125 C4.91273437 0.00378906 4.91273437 0.00378906 6.625 0.015625 C7.74390625 0.00789063 8.8628125 0.00015625 10.015625 -0.0078125 C11.08296875 -0.00523438 12.1503125 -0.00265625 13.25 0 C14.23226563 0.00225586 15.21453125 0.00451172 16.2265625 0.00683594 C18.625 0.265625 18.625 0.265625 20.625 2.265625 C22.24097987 10.5798887 23.12367439 22.07145624 18.4375 29.45703125 C14.59758442 34.16454282 10.75276039 36.83531573 4.78125 38.04296875 C1.22549427 38.13480128 -1.90093956 38.02168774 -5.375 37.265625 C-7.83502787 34.80559713 -7.62052005 33.41768661 -7.65289307 30.05895996 C-7.6488446 29.35372192 -7.64479614 28.64848389 -7.640625 27.921875 C-7.64253845 27.19697876 -7.6444519 26.47208252 -7.64642334 25.72521973 C-7.64778487 24.19197238 -7.64409064 22.6587135 -7.63574219 21.12548828 C-7.62504178 18.77480241 -7.63563808 16.42488077 -7.6484375 14.07421875 C-7.6471159 12.58593581 -7.64455349 11.09765334 -7.640625 9.609375 C-7.64467346 8.90413696 -7.64872192 8.19889893 -7.65289307 7.47229004 C-7.59189405 1.14359314 -6.16387381 0.01415588 0 0 Z M-3.375 5.265625 C-3.375 14.175625 -3.375 23.085625 -3.375 32.265625 C-0.735 32.265625 1.905 32.265625 4.625 32.265625 C4.68558594 31.55535156 4.74617188 30.84507813 4.80859375 30.11328125 C4.89238281 29.19417969 4.97617187 28.27507812 5.0625 27.328125 C5.14371094 26.41160156 5.22492187 25.49507812 5.30859375 24.55078125 C5.625 22.265625 5.625 22.265625 6.625 21.265625 C8.30683948 21.03275492 9.9962416 20.85298334 11.6875 20.703125 C14.1315625 20.4865625 14.1315625 20.4865625 16.625 20.265625 C16.625 15.315625 16.625 10.365625 16.625 5.265625 C10.025 5.265625 3.425 5.265625 -3.375 5.265625 Z M8.625 25.265625 C8.955 26.255625 9.285 27.245625 9.625 28.265625 C10.285 27.275625 10.945 26.285625 11.625 25.265625 C10.635 25.265625 9.645 25.265625 8.625 25.265625 Z " fill="#f5f5f5" transform="translate(17.375,39.734375)"/>
    <path d="M0 0 C0.9075 0.185625 1.815 0.37125 2.75 0.5625 C5.68314324 0.95734621 7.2644657 0.94691572 10 0 C10.95234815 4.40461018 11 8.50886589 11 13 C9.948125 12.814375 8.89625 12.62875 7.8125 12.4375 C4.42880118 12.04920669 2.23574112 12.11752515 -1 13 C-1 8.50886589 -0.95234815 4.40461018 0 0 Z " fill="#f5f5f5" transform="translate(81,62)"/>
    <path d="M0 0 C0.9075 0.185625 1.815 0.37125 2.75 0.5625 C5.68314324 0.95734621 7.2644657 0.94691572 10 0 C10.95234815 4.40461018 11 8.50886589 11 13 C9.948125 12.814375 8.89625 12.62875 7.8125 12.4375 C4.42880118 12.04920669 2.23574112 12.11752515 -1 13 C-1 8.50886589 -0.95234815 4.40461018 0 0 Z " fill="#f5f5f5" transform="translate(99,56)"/>
    <path d="M0 0 C0.9075 0.185625 1.815 0.37125 2.75 0.5625 C5.68314324 0.95734621 7.2644657 0.94691572 10 0 C10.95234815 4.40461018 11 8.50886589 11 13 C9.948125 12.814375 8.89625 12.62875 7.8125 12.4375 C4.42880118 12.04920669 2.23574112 12.11752515 -1 13 C-1 8.50886589 -0.95234815 4.40461018 0 0 Z " fill="#f5f5f5" transform="translate(47,38)"/>
    <path d="M0 0 C0.9075 0.185625 1.815 0.37125 2.75 0.5625 C5.68314324 0.95734621 7.2644657 0.94691572 10 0 C10.95234815 4.40461018 11 8.50886589 11 13 C9.948125 12.814375 8.89625 12.62875 7.8125 12.4375 C4.42880118 12.04920669 2.23574112 12.11752515 -1 13 C-1 8.50886589 -0.95234815 4.40461018 0 0 Z " fill="#f5f5f5" transform="translate(71,20)"/>
    <path d="M0 0 C2 2 2 2 2.3125 5.4375 C2 9 2 9 0.875 10.9375 C-1.88980433 12.50422245 -3.88188517 12.38976435 -7 12 C-8.875 10.9375 -8.875 10.9375 -10 9 C-10.4375 5.5 -10.4375 5.5 -10 2 C-7.00303875 -1.6885677 -4.34072074 -1.22672543 0 0 Z M-5 4 C-5 4.99 -5 5.98 -5 7 C-4.01 6.67 -3.02 6.34 -2 6 C-2.33 5.34 -2.66 4.68 -3 4 C-3.66 4 -4.32 4 -5 4 Z " fill="#f5f5f5" transform="translate(104,11)"/>
    <path d="M0 0 C0.33 0.99 0.66 1.98 1 3 C1.99 2.67 2.98 2.34 4 2 C3.67 3.65 3.34 5.3 3 7 C1.35 7.33 -0.3 7.66 -2 8 C-1.34 5.36 -0.68 2.72 0 0 Z " fill="#f5f5f5" transform="translate(65,63)"/>
</svg>
