<?xml version="1.0" encoding="UTF-8"?>
<svg version="1.1" xmlns="http://www.w3.org/2000/svg" width="162" height="160">
    <path d="M0 0 C3.11116179 1.71239349 5.38689318 3.77378636 7 7 C7.99141638 11.7793752 7.90098515 15.53303803 5.30859375 19.75390625 C2.97138247 22.61140109 0.53390758 25.31567781 -2 28 C-3.50255251 29.66436586 -5.00262814 31.33097175 -6.5 33 C-7.23863281 33.81082031 -7.97726563 34.62164062 -8.73828125 35.45703125 C-11.12900333 38.14504519 -13.41581896 40.89831709 -15.6875 43.6875 C-16.43257812 44.60144531 -17.17765625 45.51539063 -17.9453125 46.45703125 C-19.18115735 47.98656546 -20.4081067 49.5234412 -21.6171875 51.07421875 C-25.78760985 56.27033957 -30.64273865 59.88091288 -37 62 C-38.35396339 62.0934978 -39.71192006 62.13524427 -41.0690918 62.1418457 C-42.29132698 62.15239738 -42.29132698 62.15239738 -43.53825378 62.16316223 C-44.41637222 62.16732651 -45.29449066 62.17149078 -46.19921875 62.17578125 C-48.06706844 62.19898904 -49.93490701 62.22310676 -51.80273438 62.24804688 C-54.74087876 62.28307436 -57.67861615 62.31245928 -60.61694336 62.32592773 C-63.45736879 62.34148843 -66.29660982 62.38175741 -69.13671875 62.42578125 C-70.43871468 62.42291862 -70.43871468 62.42291862 -71.76701355 62.41999817 C-79.97577397 62.58298 -85.73984554 65.25534285 -91.48860168 71.0867157 C-91.96287094 71.58790421 -92.4371402 72.08909271 -92.92578125 72.60546875 C-93.69718697 73.39247917 -93.69718697 73.39247917 -94.48417664 74.19538879 C-96.1036076 75.8500432 -97.70881668 77.51759072 -99.3125 79.1875 C-100.93583187 80.8661864 -102.56208328 82.54177612 -104.19438171 84.21174622 C-105.20394834 85.24571861 -106.20812109 86.28499236 -107.20613098 87.3301239 C-109.47283151 89.66197408 -110.86140058 90.95380019 -114 92 C-115.51342773 91.08056641 -115.51342773 91.08056641 -117.24609375 89.4765625 C-117.94976074 88.82719727 -118.65342773 88.17783203 -119.37841797 87.50878906 C-120.24354004 86.68088867 -121.10866211 85.85298828 -122 85 C-122.53441711 84.49190796 -123.06883423 83.98381592 -123.6194458 83.46032715 C-127.46633719 79.79620271 -131.2690875 76.08999189 -135.04858398 72.35644531 C-136.40118675 71.02565078 -137.76002886 69.70117077 -139.12475586 68.3828125 C-141.10941374 66.46472843 -143.07396106 64.52796946 -145.03515625 62.5859375 C-145.6495607 61.99936371 -146.26396515 61.41278992 -146.89698792 60.80844116 C-150.92164317 56.76366098 -150.92164317 56.76366098 -151.25561523 53.50878906 C-149.40257016 49.80630196 -146.79073563 47.18032898 -143.875 44.2734375 C-143.25407471 43.64394196 -142.63314941 43.01444641 -141.9934082 42.36587524 C-140.67698788 41.03798218 -139.35531189 39.71528167 -138.02880859 38.39746094 C-136.01720901 36.39215517 -134.0336543 34.36179037 -132.05078125 32.328125 C-130.76464626 31.03744076 -129.47693382 29.74832611 -128.1875 28.4609375 C-127.60274902 27.85776703 -127.01799805 27.25459656 -126.41552734 26.63314819 C-117.61346506 18.02122546 -107.47975944 18.5480917 -95.80078125 18.6015625 C-94.23617925 18.59953791 -92.67157817 18.59662327 -91.10697937 18.59286499 C-87.84328135 18.58846365 -84.57983113 18.59480413 -81.31616211 18.60888672 C-77.14331876 18.6260203 -72.97105264 18.61609752 -68.79823017 18.59816933 C-65.57335591 18.58730836 -62.34861769 18.59078765 -59.12373924 18.5985527 C-57.58522662 18.60054611 -56.04670144 18.59812577 -54.50820351 18.59111404 C-52.35710693 18.58345625 -50.20693617 18.59516082 -48.0559082 18.61181641 C-46.22465141 18.61539658 -46.22465141 18.61539658 -44.35639954 18.61904907 C-39.68060177 19.14975153 -36.32889867 20.67110133 -33 24 C-28.81826116 20.06029106 -25.08087288 15.93355308 -21.5 11.4375 C-10.267981 -2.31367335 -10.267981 -2.31367335 0 0 Z M-13 10 C-13.87398438 10.93457031 -14.74796875 11.86914062 -15.6484375 12.83203125 C-18.00607248 15.39894905 -20.34315109 17.98440663 -22.68261719 20.56787109 C-23.81914671 21.8033941 -24.98872967 23.00836149 -26.1640625 24.20703125 C-30.27625702 28.50296212 -31.99234943 32.02506337 -33.1015625 37.8984375 C-34 40 -34 40 -35.96508789 41.11914062 C-40.16849965 42.33914783 -44.10313837 42.24691114 -48.45703125 42.1953125 C-49.35999435 42.1924826 -50.26295746 42.18965271 -51.19328308 42.18673706 C-54.06649234 42.17557607 -56.93938555 42.15047897 -59.8125 42.125 C-61.76496944 42.11496493 -63.71744379 42.10584 -65.66992188 42.09765625 C-70.44673566 42.07565008 -75.22331431 42.04114831 -80 42 C-80 41.01 -80 40.02 -80 39 C-78.83952148 38.98541748 -77.67904297 38.97083496 -76.48339844 38.95581055 C-72.17432982 38.89780059 -67.8657823 38.82056793 -63.55712891 38.73754883 C-61.69295718 38.70431216 -59.82868513 38.67627627 -57.96435547 38.65356445 C-55.28309409 38.61999512 -52.60275104 38.56767891 -49.921875 38.51171875 C-49.08944275 38.50532883 -48.2570105 38.4989389 -47.39935303 38.49235535 C-43.93682955 38.40454355 -41.57667937 38.29930127 -38.46972656 36.68676758 C-36.66005518 34.92677012 -36.66005518 34.92677012 -36.5625 31.5 C-36.7204915 28.11646187 -36.7204915 28.11646187 -38.25 26.125 C-41.99957072 23.71456168 -45.92175424 23.86545631 -50.27807617 23.83886719 C-52.18607246 23.82445587 -52.18607246 23.82445587 -54.13261414 23.80975342 C-55.51939717 23.80490378 -56.90618231 23.80062536 -58.29296875 23.796875 C-58.99518366 23.79404762 -59.69739857 23.79122025 -60.42089272 23.78830719 C-64.14005533 23.77333357 -67.85917937 23.76409377 -71.57836914 23.75976562 C-75.40014431 23.75429669 -79.22156039 23.73029724 -83.04322338 23.70179367 C-85.99883515 23.68306409 -88.95436239 23.67795615 -91.91002846 23.67642975 C-93.3176907 23.67342378 -94.72535219 23.66546564 -96.13295555 23.65224457 C-105.7516242 23.56837942 -115.0784482 23.5234353 -122.4375 30.5 C-123.07558594 31.0878125 -123.71367188 31.675625 -124.37109375 32.28125 C-126.19444364 34.10778222 -126.19444364 34.10778222 -128 37 C-117.77 47.23 -107.54 57.46 -97 68 C-94.69 66.02 -92.38 64.04 -90 62 C-83.93885233 58.20719014 -78.24533566 57.43730896 -71.21484375 57.53125 C-69.86405479 57.52067566 -69.86405479 57.52067566 -68.48597717 57.5098877 C-65.63618921 57.48802243 -62.78734625 57.49081552 -59.9375 57.5 C-56.17527807 57.5121023 -52.41444494 57.49823207 -48.65234375 57.46875 C-47.80316879 57.48006958 -46.95399384 57.49138916 -46.0790863 57.50305176 C-38.71506496 57.44125181 -33.56462569 55.34828992 -28.12890625 50.37109375 C-27.28199219 49.40300781 -26.43507813 48.43492188 -25.5625 47.4375 C-25.09714844 46.9115625 -24.63179688 46.385625 -24.15234375 45.84375 C-20.42738369 41.59973813 -16.87713262 37.21332231 -13.33984375 32.8125 C-10.23166816 29.07646256 -6.95200465 25.51564324 -3.62890625 21.97070312 C0.56654527 17.64444119 0.56654527 17.64444119 2.375 12.0625 C2.23208332 8.94833325 2.23208332 8.94833325 0.375 6.625 C-5.56508436 2.56073175 -8.66730385 5.36651106 -13 10 Z M-135.8203125 43.625 C-136.92696886 44.74498957 -138.0283192 45.87024066 -139.125 47 C-139.96998047 47.85851562 -139.96998047 47.85851562 -140.83203125 48.734375 C-142.22586268 50.15183069 -143.61351636 51.57535626 -145 53 C-139.19316781 60.11905227 -132.63714556 66.47374812 -126.125 72.9375 C-124.94768362 74.10979204 -123.77059826 75.28231614 -122.59375 76.45507812 C-119.73182511 79.30606982 -116.86678543 82.15389615 -114 85 C-108.63108837 80.47694451 -108.63108837 80.47694451 -103.5625 75.625 C-102.716875 74.75875 -101.87125 73.8925 -101 73 C-102.2762525 70.20574912 -103.59970977 68.14857874 -105.765625 65.97558594 C-106.31959961 65.41530701 -106.87357422 64.85502808 -107.44433594 64.277771 C-108.33813965 63.39003998 -108.33813965 63.39003998 -109.25 62.484375 C-109.86391602 61.86854553 -110.47783203 61.25271606 -111.11035156 60.6182251 C-112.40574483 59.32147354 -113.70365644 58.02723343 -115.00390625 56.73535156 C-116.99975068 54.75024798 -118.98466726 52.75466409 -120.96875 50.7578125 C-122.22852555 49.49935789 -123.48892101 48.24152346 -124.75 46.984375 C-125.34586914 46.3844574 -125.94173828 45.78453979 -126.55566406 45.16644287 C-130.92774655 40.33300769 -130.92774655 40.33300769 -135.8203125 43.625 Z " fill="#f5f5f5" transform="translate(153,61)"/>
    <path d="M0 0 C1.093125 0.00257813 2.18625 0.00515625 3.3125 0.0078125 C4.405625 0.00523437 5.49875 0.00265625 6.625 0 C9.3125 0.1328125 9.3125 0.1328125 10.3125 1.1328125 C10.35330783 3.13239614 10.35504356 5.13326504 10.3125 7.1328125 C14.26821257 8.38391401 14.26821257 8.38391401 18.3125 9.1328125 C20.08440909 7.77836949 20.08440909 7.77836949 21.3125 6.1328125 C24.54790716 6.5245737 26.32784416 7.69375777 28.625 9.9453125 C29.15738281 10.44675781 29.68976563 10.94820312 30.23828125 11.46484375 C31.3125 13.1328125 31.3125 13.1328125 31.0546875 15.21484375 C30.3125 17.1328125 30.3125 17.1328125 29.125 19.0078125 C27.92332749 22.1506483 29.07921665 24.11811986 30.3125 27.1328125 C31.7665625 27.101875 31.7665625 27.101875 33.25 27.0703125 C36.3125 27.1328125 36.3125 27.1328125 37.3125 28.1328125 C37.38494053 30.15245449 37.39627188 32.17448374 37.375 34.1953125 C37.36597656 35.30003906 37.35695313 36.40476563 37.34765625 37.54296875 C37.33605469 38.39761719 37.32445313 39.25226562 37.3125 40.1328125 C36.19875 40.3184375 35.085 40.5040625 33.9375 40.6953125 C32.74125 41.1696875 31.545 41.6440625 30.3125 42.1328125 C28.77163678 45.64681918 28.77163678 45.64681918 28.3125 49.1328125 C29.0859375 49.7515625 29.0859375 49.7515625 29.875 50.3828125 C30.349375 50.9603125 30.82375 51.5378125 31.3125 52.1328125 C30.91355401 55.37092412 29.75637798 57.14323573 27.5 59.4453125 C26.99855469 59.97769531 26.49710938 60.51007813 25.98046875 61.05859375 C24.3125 62.1328125 24.3125 62.1328125 22.23046875 61.875 C20.3125 61.1328125 20.3125 61.1328125 18.4375 59.9453125 C15.2946642 58.74363999 13.32719264 59.89952915 10.3125 61.1328125 C10.333125 62.1021875 10.35375 63.0715625 10.375 64.0703125 C10.3125 67.1328125 10.3125 67.1328125 9.3125 68.1328125 C7.31450428 68.23155066 5.31292842 68.26253049 3.3125 68.2578125 C2.219375 68.26039062 1.12625 68.26296875 0 68.265625 C-2.6875 68.1328125 -2.6875 68.1328125 -3.6875 67.1328125 C-3.72830783 65.13322886 -3.73004356 63.13235996 -3.6875 61.1328125 C-7.64321257 59.88171099 -7.64321257 59.88171099 -11.6875 59.1328125 C-13.45940909 60.48725551 -13.45940909 60.48725551 -14.6875 62.1328125 C-17.92290716 61.7410513 -19.70284416 60.57186723 -22 58.3203125 C-22.53238281 57.81886719 -23.06476562 57.31742188 -23.61328125 56.80078125 C-24.6875 55.1328125 -24.6875 55.1328125 -24.4296875 53.05078125 C-23.6875 51.1328125 -23.6875 51.1328125 -22.5 49.2578125 C-21.29832749 46.1149767 -22.45421665 44.14750514 -23.6875 41.1328125 C-24.656875 41.1534375 -25.62625 41.1740625 -26.625 41.1953125 C-29.6875 41.1328125 -29.6875 41.1328125 -30.6875 40.1328125 C-30.78623816 38.13481678 -30.81721799 36.13324092 -30.8125 34.1328125 C-30.81507812 33.0396875 -30.81765625 31.9465625 -30.8203125 30.8203125 C-30.6875 28.1328125 -30.6875 28.1328125 -29.6875 27.1328125 C-27.68791636 27.09200467 -25.68704746 27.09026894 -23.6875 27.1328125 C-22.43639849 23.17709993 -22.43639849 23.17709993 -21.6875 19.1328125 C-23.04194301 17.36090341 -23.04194301 17.36090341 -24.6875 16.1328125 C-24.2957388 12.89740534 -23.12655473 11.11746834 -20.875 8.8203125 C-20.37355469 8.28792969 -19.87210938 7.75554688 -19.35546875 7.20703125 C-17.6875 6.1328125 -17.6875 6.1328125 -15.60546875 6.390625 C-13.6875 7.1328125 -13.6875 7.1328125 -11.8125 8.3203125 C-8.6696642 9.52198501 -6.70219264 8.36609585 -3.6875 7.1328125 C-3.708125 6.1634375 -3.72875 5.1940625 -3.75 4.1953125 C-3.66808079 0.18127143 -3.66808079 0.18127143 0 0 Z M2.3125 5.1328125 C2.18875 6.0403125 2.065 6.9478125 1.9375 7.8828125 C-0.24483603 12.24748455 -2.67081744 12.86465206 -7.08203125 14.56640625 C-11.04449122 15.42781059 -13.90902298 14.39230484 -17.6875 13.1328125 C-17.336875 13.6690625 -16.98625 14.2053125 -16.625 14.7578125 C-14.80141915 19.37755066 -16.71266595 23.52805457 -18.4375 27.9453125 C-20.27601852 31.97383102 -20.27601852 31.97383102 -23.4375 33.1953125 C-24.18 33.1746875 -24.9225 33.1540625 -25.6875 33.1328125 C-25.6875 33.7928125 -25.6875 34.4528125 -25.6875 35.1328125 C-24.78 35.2565625 -23.8725 35.3803125 -22.9375 35.5078125 C-18.57282795 37.69014853 -17.95566044 40.11612994 -16.25390625 44.52734375 C-15.39250191 48.48980372 -16.42800766 51.35433548 -17.6875 55.1328125 C-16.883125 54.606875 -16.883125 54.606875 -16.0625 54.0703125 C-11.44276184 52.24673165 -7.29225793 54.15797845 -2.875 55.8828125 C1.15351852 57.72133102 1.15351852 57.72133102 2.375 60.8828125 C2.354375 61.6253125 2.33375 62.3678125 2.3125 63.1328125 C2.9725 63.1328125 3.6325 63.1328125 4.3125 63.1328125 C4.43625 62.2253125 4.56 61.3178125 4.6875 60.3828125 C6.86983603 56.01814045 9.29581744 55.40097294 13.70703125 53.69921875 C17.66949122 52.83781441 20.53402298 53.87332016 24.3125 55.1328125 C23.961875 54.5965625 23.61125 54.0603125 23.25 53.5078125 C21.42641915 48.88807434 23.33766595 44.73757043 25.0625 40.3203125 C26.90101852 36.29179398 26.90101852 36.29179398 30.0625 35.0703125 C30.805 35.0909375 31.5475 35.1115625 32.3125 35.1328125 C32.3125 34.4728125 32.3125 33.8128125 32.3125 33.1328125 C31.405 33.0090625 30.4975 32.8853125 29.5625 32.7578125 C25.19782795 30.57547647 24.58066044 28.14949506 22.87890625 23.73828125 C22.01750191 19.77582128 23.05300766 16.91128952 24.3125 13.1328125 C23.77625 13.4834375 23.24 13.8340625 22.6875 14.1953125 C18.06776184 16.01889335 13.91725793 14.10764655 9.5 12.3828125 C5.47148148 10.54429398 5.47148148 10.54429398 4.25 7.3828125 C4.270625 6.6403125 4.29125 5.8978125 4.3125 5.1328125 C3.6525 5.1328125 2.9925 5.1328125 2.3125 5.1328125 Z " fill="#f5f5f5" transform="translate(77.6875,7.8671875)"/>
    <path d="M0 0 C4.58944252 2.59067597 8.07973488 5.95843049 9.58984375 11.1171875 C10.43895989 16.98821911 10.4991943 22.35248537 7.52734375 27.6171875 C4.03074363 32.27932099 0.50546122 34.65361652 -5.2109375 35.5625 C-11.86492851 35.95142451 -16.34925973 34.93658478 -21.62890625 30.8046875 C-25.93879009 26.72163966 -26.61375972 22.99661763 -26.91015625 17.2421875 C-26.74178498 11.34187256 -25.47397087 7.4298071 -21.41015625 3.1171875 C-15.27205905 -1.89350409 -7.4975257 -2.74625739 0 0 Z M-20.28515625 10.3671875 C-21.77766699 14.01554708 -22.08912299 17.26970931 -21.41015625 21.1171875 C-19.18879062 25.47764597 -16.97448596 28.24996171 -12.41015625 30.1171875 C-7.58292533 30.65354649 -5.43124839 30.63736651 -1.09765625 28.4296875 C3.05683185 24.85489541 4.41626154 22.67942739 5.02734375 17.1796875 C4.84978502 12.9021362 3.39998121 10.38302292 0.58984375 7.1171875 C-2.87235235 4.23202408 -5.89812509 3.57800885 -10.41796875 3.765625 C-14.79470391 4.53799003 -17.52410585 7.05392702 -20.28515625 10.3671875 Z " fill="#f5f5f5" transform="translate(89.41015625,24.8828125)"/>
    <path d="M0 0 C0.33 0.99 0.66 1.98 1 3 C-0.71163283 4.87350354 -2.44107553 6.72191657 -4.1875 8.5625 C-4.91163086 9.36204102 -4.91163086 9.36204102 -5.65039062 10.17773438 C-7.10546875 11.69140625 -7.10546875 11.69140625 -10 14 C-13.56976439 13.95896823 -14.63928635 13.32171758 -17.3125 10.9375 C-17.869375 10.298125 -18.42625 9.65875 -19 9 C-18.34 7.68 -17.68 6.36 -17 5 C-15.02 5.66 -13.04 6.32 -11 7 C-10.54109375 6.4946875 -10.0821875 5.989375 -9.609375 5.46875 C-8.99578125 4.8190625 -8.3821875 4.169375 -7.75 3.5 C-7.14671875 2.8503125 -6.5434375 2.200625 -5.921875 1.53125 C-4 0 -4 0 0 0 Z " fill="#f5f5f5" transform="translate(90,35)"/>
    <path d="M0 0 C2.97 0.495 2.97 0.495 6 1 C5.67 1.99 5.34 2.98 5 4 C4.34 4 3.68 4 3 4 C1.61767557 5.62626404 0.28062485 7.2925002 -1 9 C-1.99 8.67 -2.98 8.34 -4 8 C-3.01 7.34 -2.02 6.68 -1 6 C-0.26656572 2.93443402 -0.26656572 2.93443402 0 0 Z " fill="#f5f5f5" transform="translate(116,90)"/>
    <path d="M0 0 C2.475 0.495 2.475 0.495 5 1 C5 1.66 5 2.32 5 3 C5.66 3 6.32 3 7 3 C7.33 4.65 7.66 6.3 8 8 C6.85073734 7.04578192 5.70569459 6.08647955 4.5625 5.125 C3.92441406 4.59132812 3.28632813 4.05765625 2.62890625 3.5078125 C1 2 1 2 0 0 Z " fill="#f5f5f5" transform="translate(19,133)"/>
    <path d="M0 0 C2.97 0 5.94 0 9 0 C7.68 1.32 6.36 2.64 5 4 C3.31503702 3.03114628 1.64821244 2.03013277 0 1 C0 0.67 0 0.34 0 0 Z " fill="#f5f5f5" transform="translate(35,149)"/>
</svg>
