<?xml version="1.0" encoding="UTF-8"?>
<!--
  - Copyright © 2023-2024 Rohit Parihar and Bloggios
  - All rights reserved.
  - This software is the property of Rohit Parihar and is protected by copyright law.
  - The software, including its source code, documentation, and associated files, may not be used, copied, modified, distributed, or sublicensed without the express written consent of Rohit Parihar.
  - For licensing and usage inquiries, please contact Rohit Parihar at rohitparih@gmail.com, or you can also contact support@bloggios.com.
  - This software is provided as-is, and no warranties or guarantees are made regarding its fitness for any particular purpose or compatibility with any specific technology.
  - For license information and terms of use, please refer to the accompanying LICENSE file or visit http://www.apache.org/licenses/LICENSE-2.0.
  - Unauthorized use of this software may result in legal action and liability for damages.
  -
  - Licensed under the Apache License, Version 2.0 (the "License");
  - you may not use this file except in compliance with the License.
  - You may obtain a copy of the License at
  -
  -      http://www.apache.org/licenses/LICENSE-2.0
  -
  - Unless required by applicable law or agreed to in writing, software distributed under the License is distributed on an "AS IS" BASIS, WITHOUT WARRANTIES OR CONDITIONS OF ANY KIND, either express or implied.
  - See the License for the specific language governing permissions and limitations under the License.
  -->

<svg version="1.1" xmlns="http://www.w3.org/2000/svg" width="160" height="160">
    <path d="M0 0 C5.03929609 3.68755358 8.53257084 8.1508713 9.8203125 14.33203125 C10.51054123 21.78650151 8.40076935 27.54551574 3.8203125 33.33203125 C5.92142859 34.81570096 8.02595285 36.29405781 10.1328125 37.76953125 C10.72771484 38.19041016 11.32261719 38.61128906 11.93554688 39.04492188 C14.54974211 40.87047721 16.77793646 42.3179059 19.8203125 43.33203125 C20.8103125 42.34203125 20.8103125 42.34203125 21.8203125 41.33203125 C21.3459375 40.71328125 20.8715625 40.09453125 20.3828125 39.45703125 C17.61549479 33.92239584 16.98052945 27.96275877 18.8828125 22.01953125 C21.06311294 17.09145492 24.51614096 14.60538921 29.1953125 12.01953125 C35.60671608 10.34035412 40.35514851 10.95069483 46.0625 14.12890625 C50.12825732 16.91169126 52.51127969 20.64133033 53.8203125 25.33203125 C54.48925934 32.02149963 52.8875918 36.41656403 49.8203125 42.33203125 C50.69042969 42.85990234 50.69042969 42.85990234 51.578125 43.3984375 C59.22332705 48.23030612 64.88794246 53.40786102 68.140625 62.0234375 C69.70386483 69.6330015 69.11278484 77.60401216 68.8203125 85.33203125 C66.04074281 86.72181609 63.78227959 86.45799123 60.67089844 86.45901489 C58.70219788 86.46324463 58.70219788 86.46324463 56.69372559 86.46755981 C55.23071275 86.46561532 53.76770006 86.46356714 52.3046875 86.46142578 C50.77071084 86.46278015 49.2367345 86.46456028 47.70275879 86.46673584 C43.52931424 86.47130596 39.35589433 86.46952233 35.18244934 86.46635675 C30.82182751 86.46383099 26.46120784 86.4661713 22.10058594 86.46774292 C14.77668884 86.46956398 7.45280182 86.46715997 0.12890625 86.46240234 C-8.34735547 86.45695985 -16.82359314 86.45872255 -25.29985428 86.46422875 C-32.56780834 86.46876168 -39.83575515 86.46940954 -47.10371017 86.46679008 C-51.44874211 86.4652283 -55.79376273 86.46503084 -60.13879395 86.46832657 C-64.2230187 86.47120789 -68.30721234 86.46922476 -72.39143372 86.46343231 C-73.89349821 86.46210612 -75.39556531 86.46249646 -76.89762878 86.46469498 C-78.94184274 86.46741194 -80.98606239 86.46340686 -83.03027344 86.45901489 C-84.74920807 86.45844935 -84.74920807 86.45844935 -86.50286865 86.45787239 C-89.1796875 86.33203125 -89.1796875 86.33203125 -91.1796875 85.33203125 C-92.10098687 60.988467 -92.10098687 60.988467 -83.3671875 50.45703125 C-79.94731318 46.83183615 -76.66039953 44.4790391 -72.1796875 42.33203125 C-72.4684375 41.77515625 -72.7571875 41.21828125 -73.0546875 40.64453125 C-75.98533543 34.62042162 -77.71913 29.83510636 -75.44921875 23.1953125 C-73.03377769 17.86162427 -70.04545201 14.88109315 -64.8671875 12.08203125 C-58.46083746 10.29421264 -53.65054192 10.94023025 -47.9375 14.1328125 C-43.46051015 17.18711446 -41.26425004 21.10641172 -40.1796875 26.33203125 C-40.1796875 32.31544564 -41.03705055 37.13984846 -44.1796875 42.33203125 C-42.41014823 43.13971732 -42.41014823 43.13971732 -40.1796875 43.33203125 C-37.89843873 42.02374506 -37.89843873 42.02374506 -35.7421875 40.08203125 C-32.66395002 37.53715175 -29.69541976 35.26001346 -26.1796875 33.33203125 C-26.52902344 32.78933594 -26.87835938 32.24664062 -27.23828125 31.6875 C-27.69332031 30.97207031 -28.14835937 30.25664063 -28.6171875 29.51953125 C-29.06964844 28.81183594 -29.52210937 28.10414062 -29.98828125 27.375 C-32.78343484 22.58199893 -32.80073838 17.59875886 -31.7890625 12.27734375 C-29.71684618 5.44965666 -24.7545745 1.49577864 -18.8046875 -2.10546875 C-12.12020892 -3.53785702 -6.01873599 -3.44798033 0 0 Z M-22.4921875 9.51953125 C-24.66197137 13.13583769 -25.37850647 16.12369632 -25.1796875 20.33203125 C-23.77904159 24.53396899 -21.60645175 27.68786676 -18.046875 30.40625 C-14.17418307 32.32639223 -10.33543721 32.26428474 -6.1796875 31.33203125 C-2.40576716 29.24079466 0.03289797 26.57877092 2.3203125 22.95703125 C3.16276115 18.53417586 3.07557232 14.46316265 0.7734375 10.5546875 C-1.48417845 7.70479576 -3.66772435 5.36496159 -7.1796875 4.33203125 C-13.65552202 3.73241694 -17.7618807 5.04491671 -22.4921875 9.51953125 Z M-66.1796875 21.33203125 C-68.58384219 24.74437984 -69.1796875 26.71392816 -69.1796875 30.89453125 C-67.96638091 35.06527265 -66.63261916 36.72314955 -63.1796875 39.33203125 C-59.37269192 40.62802974 -57.75070297 40.55595889 -53.9921875 39.08203125 C-49.47106405 36.2810797 -49.47106405 36.2810797 -47.3046875 31.58203125 C-47.14156493 27.34084449 -48.04161901 24.98743866 -50.1796875 21.33203125 C-56.02954534 17.47361438 -60.305024 17.58224603 -66.1796875 21.33203125 Z M27.8203125 21.33203125 C25.6253365 24.51828674 24.8203125 26.45984036 24.8203125 30.33203125 C26.12883427 34.25759656 27.83258889 36.47709536 30.8203125 39.33203125 C34.16895224 40.4482445 36.04449598 40.53522129 39.4453125 39.64453125 C42.2171992 38.11269913 43.90027372 36.86922535 45.8203125 34.33203125 C46.93289713 30.3267266 47.05299116 28.04375422 45.7578125 24.08203125 C43.43235329 20.78137946 41.58529367 19.71508556 37.8203125 18.33203125 C33.36552812 18.33203125 31.53887667 18.95847966 27.8203125 21.33203125 Z M-15.1796875 39.33203125 C-14.5196875 40.98203125 -13.8596875 42.63203125 -13.1796875 44.33203125 C-11.5296875 44.00203125 -9.8796875 43.67203125 -8.1796875 43.33203125 C-7.8496875 42.01203125 -7.5196875 40.69203125 -7.1796875 39.33203125 C-9.8196875 39.33203125 -12.4596875 39.33203125 -15.1796875 39.33203125 Z M-35.15234375 49.23046875 C-43.11491379 57.7847372 -44.37985374 66.92255554 -44.1796875 78.33203125 C-41.2096875 78.33203125 -38.2396875 78.33203125 -35.1796875 78.33203125 C-34.5196875 76.02203125 -33.8596875 73.71203125 -33.1796875 71.33203125 C-31.8596875 71.66203125 -30.5396875 71.99203125 -29.1796875 72.33203125 C-28.8496875 74.31203125 -28.5196875 76.29203125 -28.1796875 78.33203125 C-25.5396875 78.33203125 -22.8996875 78.33203125 -20.1796875 78.33203125 C-20.5096875 77.34203125 -20.8396875 76.35203125 -21.1796875 75.33203125 C-21.60437071 70.57162873 -21.2884905 65.86243041 -20.625 61.140625 C-20.47188354 60.03001709 -20.47188354 60.03001709 -20.31567383 58.89697266 C-20.10412185 57.42393225 -19.87545777 55.95322228 -19.62768555 54.48583984 C-18.85932615 49.16110303 -19.69480746 46.10775788 -22.1796875 41.33203125 C-27.59206249 41.33203125 -31.39324827 45.61280459 -35.15234375 49.23046875 Z M-0.1796875 41.33203125 C-3.90392692 48.20755017 -2.85596632 53.98225809 -1.73828125 61.3984375 C-0.00899573 73.57599359 -0.00899573 73.57599359 -3.1796875 78.33203125 C-0.2096875 78.33203125 2.7603125 78.33203125 5.8203125 78.33203125 C6.4803125 76.02203125 7.1403125 73.71203125 7.8203125 71.33203125 C9.1403125 71.66203125 10.4603125 71.99203125 11.8203125 72.33203125 C12.1503125 74.31203125 12.4803125 76.29203125 12.8203125 78.33203125 C15.7903125 78.33203125 18.7603125 78.33203125 21.8203125 78.33203125 C22.19826191 68.1273971 20.80079893 58.12693685 13.95703125 50.1640625 C10.5898813 46.68277188 7.27540765 43.36864618 2.8203125 41.33203125 C1.8303125 41.33203125 0.8403125 41.33203125 -0.1796875 41.33203125 Z M-78.1796875 55.33203125 C-82.51429178 61.29211214 -84.33044758 65.66818425 -84.2421875 73.08203125 C-84.23316406 74.066875 -84.22414063 75.05171875 -84.21484375 76.06640625 C-84.20324219 76.8140625 -84.19164063 77.56171875 -84.1796875 78.33203125 C-81.5396875 78.33203125 -78.8996875 78.33203125 -76.1796875 78.33203125 C-75.1896875 74.86703125 -75.1896875 74.86703125 -74.1796875 71.33203125 C-72.5296875 71.33203125 -70.8796875 71.33203125 -69.1796875 71.33203125 C-69.1796875 73.64203125 -69.1796875 75.95203125 -69.1796875 78.33203125 C-63.2396875 78.33203125 -57.2996875 78.33203125 -51.1796875 78.33203125 C-50.9321875 75.75390625 -50.6846875 73.17578125 -50.4296875 70.51953125 C-49.66176151 63.3421117 -48.13110059 56.96554708 -45.1796875 50.33203125 C-56.21283546 44.31395054 -69.30554665 46.4578904 -78.1796875 55.33203125 Z M22.8203125 50.33203125 C23.08585937 50.92886719 23.35140625 51.52570313 23.625 52.140625 C27.1641674 60.83354347 27.92824315 69.03964214 28.8203125 78.33203125 C34.7603125 78.33203125 40.7003125 78.33203125 46.8203125 78.33203125 C46.8203125 76.02203125 46.8203125 73.71203125 46.8203125 71.33203125 C48.4703125 71.33203125 50.1203125 71.33203125 51.8203125 71.33203125 C52.4803125 73.64203125 53.1403125 75.95203125 53.8203125 78.33203125 C56.4603125 78.33203125 59.1003125 78.33203125 61.8203125 78.33203125 C62.43363375 69.21739596 60.94674521 63.24499694 56.0703125 55.58203125 C50.16199294 49.67371169 44.28523349 47.20953966 36.0078125 47.08203125 C30.80610961 47.10749858 27.36329182 47.85404253 22.8203125 50.33203125 Z M-13.1796875 51.33203125 C-13.51687797 53.89407669 -13.84955903 56.45657443 -14.1796875 59.01953125 C-14.27507812 59.74076172 -14.37046875 60.46199219 -14.46875 61.20507812 C-15.70472733 68.20174596 -15.70472733 68.20174596 -13.6796875 74.64453125 C-13.1846875 75.20140625 -12.6896875 75.75828125 -12.1796875 76.33203125 C-8.90195246 75.58053102 -8.90195246 75.58053102 -7.1796875 72.33203125 C-7.11958829 69.39228423 -7.11958829 69.39228423 -7.4921875 66.14453125 C-7.60046875 64.99210937 -7.70875 63.8396875 -7.8203125 62.65234375 C-8.22959913 58.87089122 -8.66247918 55.1002633 -9.1796875 51.33203125 C-10.4996875 51.33203125 -11.8196875 51.33203125 -13.1796875 51.33203125 Z " fill="#f5f5f5" transform="translate(91.1796875,67.66796875)"/>
    <path d="M0 0 C1.98 0 3.96 0 6 0 C6.3196875 0.97582031 6.639375 1.95164062 6.96875 2.95703125 C9.49867775 10.08519104 9.49867775 10.08519104 14.90185547 14.95751953 C19.51638465 16.34728469 24.20369689 16.75816959 29 17 C29.8125 19.23828125 29.8125 19.23828125 30 22 C27.875 24.04296875 27.875 24.04296875 25 26.1875 C21.27364539 29.57653142 21.27364539 29.57653142 19.63623047 34.20214844 C19.55769889 38.29075039 19.99401668 42.26785162 20.52734375 46.31640625 C20.76130859 48.13978516 20.76130859 48.13978516 21 50 C20.67 50.33 20.34 50.66 20 51 C15.67647777 50.73529456 12.72563948 49.98033136 8.9375 47.875 C6.23568381 46.45408323 5.13604096 46 2 46 C-1.24544425 47.08181475 -4.08487165 48.54559306 -7.1015625 50.140625 C-9.50984333 51.23079328 -11.39406517 51.39483861 -14 51 C-14.33 50.67 -14.66 50.34 -15 50 C-14.74411275 48.00577125 -14.48719972 46.01166774 -14.22460938 44.01831055 C-13.17217037 35.98456865 -13.17217037 35.98456865 -16.19140625 28.7578125 C-18.9323742 26.16331178 -18.9323742 26.16331178 -21.875 24.04296875 C-22.926875 23.03169922 -22.926875 23.03169922 -24 22 C-23.8125 19.23828125 -23.8125 19.23828125 -23 17 C-21.38931641 16.91878906 -21.38931641 16.91878906 -19.74609375 16.8359375 C-11.98119369 16.3247145 -11.98119369 16.3247145 -5.55517578 12.48388672 C-3.01964819 8.6032349 -1.43740445 4.38756116 0 0 Z M2 12 C1.72349609 12.83144531 1.72349609 12.83144531 1.44140625 13.6796875 C-0.89936064 19.52640303 -0.89936064 19.52640303 -4.26953125 20.9765625 C-6.51913176 21.45128135 -8.71006801 21.80427932 -11 22 C-11 22.99 -11 23.98 -11 25 C-9.7315625 25.99 -9.7315625 25.99 -8.4375 27 C-5.54612289 30.55861798 -5.75843788 31.41461327 -6.1875 35.8125 C-6.43245813 37.54552152 -6.69514383 39.27650623 -7 41 C-3.45481116 39.60240095 -3.45481116 39.60240095 0 38 C4.75705375 37.57715078 7.03406778 38.46620997 11 41 C11.66 40.67 12.32 40.34 13 40 C12.85820313 39.35933594 12.71640625 38.71867187 12.5703125 38.05859375 C11.38432394 31.0779067 11.38432394 31.0779067 13.26953125 27.77734375 C14.76943447 26.0666813 16.28888404 24.49784643 18 23 C16.48002255 21.48002255 14.7940379 21.70986742 12.6875 21.4375 C9.70587642 20.83452835 8.40415196 20.52007976 6.515625 18.08984375 C5.53968933 16.08493243 4.70333936 14.11493654 4 12 C3.34 12 2.68 12 2 12 Z " fill="#f5f5f5" transform="translate(77,8)"/>
    <path d="M0 0 C0.33 0 0.66 0 1 0 C1.3125 2.25 1.3125 2.25 1 5 C-1.5 7.3125 -1.5 7.3125 -4 9 C-2.94124926 5.59687262 -1.99097846 2.98646769 0 0 Z " fill="#f5f5f5" transform="translate(75,13)"/>
</svg>
